<svg width="130" height="61" viewBox="0 0 130 61" fill="none" xmlns="http://www.w3.org/2000/svg">
<g clip-path="url(#clip0_29512_857)">
<path d="M63.5735 0.0130729C63.6623 0.0929865 63.8053 1.76901 64.1259 2.32409C64.648 3.23338 65.1657 3.06491 65.9261 3.43424C66.7147 3.81869 65.1397 4.08435 64.8754 4.24633C64.3404 4.57463 63.9417 5.30249 63.7966 5.90076C63.7554 6.06923 63.5128 8.23338 63.1792 6.96556C62.9301 6.01955 63.021 4.99795 62.0527 4.39104C61.5414 4.07139 60.9349 4.10595 60.5016 3.73661C60.4128 3.35649 61.379 3.31761 61.6996 3.19234C62.3863 2.9202 62.7156 2.458 62.9192 1.76901C63.008 1.4688 63.1662 0.0713882 63.229 0.00875324C63.242 -0.00420572 63.5561 -0.0020459 63.5735 0.0130729Z" fill="#FBBF24"/>
<path d="M4.52549 37.1684C4.65547 37.285 4.86561 39.7494 5.3357 40.5637C6.10259 41.8984 6.86297 41.6501 7.98081 42.1943C9.09864 42.7386 6.82615 43.149 6.4362 43.3887C5.65199 43.8704 5.06491 44.9416 4.85261 45.8185C4.79195 46.0669 4.43667 49.2462 3.94491 47.3822C3.57663 45.9913 3.71311 44.4902 2.28983 43.6004C1.53811 43.1295 0.647739 43.1814 0.00866841 42.6393C-0.121312 42.082 1.29981 42.0237 1.7699 41.838C2.77942 41.4362 3.26468 40.7602 3.56147 39.7451C3.69145 39.3045 3.92325 37.2505 4.01857 37.1598C4.0359 37.1425 4.49949 37.1447 4.52549 37.1684Z" fill="#FBBF24"/>
<path d="M74.4745 1.77105C74.6543 1.93304 74.9446 5.32612 75.5902 6.44923C76.6473 8.28941 77.6958 7.94815 79.2339 8.69545C80.8305 9.47299 77.6417 10.0108 77.1066 10.3391C76.0256 11.0043 75.2175 12.4773 74.9251 13.6868C74.8428 14.0281 74.3532 18.4082 73.6751 15.8423C73.1682 13.9266 73.3567 11.8596 71.394 10.6307C70.3584 9.98271 69.1301 10.054 68.2528 9.30669C68.073 8.53995 70.0313 8.46003 70.6791 8.20301C72.072 7.6501 72.7371 6.71705 73.1487 5.31964C73.3263 4.71273 73.647 1.8812 73.7769 1.75593C73.8029 1.73217 74.4398 1.73433 74.4745 1.76673V1.77105Z" fill="#FBBF24"/>
<path d="M14.7181 50.743C16.0959 49.2354 17.5084 47.3952 19.5686 46.8402L17.7922 46.2332C17.6319 46.0972 17.6362 45.717 17.6882 45.5507C17.777 45.2678 20.929 43.4924 20.8207 43.0216C20.7774 42.8315 19.1483 42.2332 18.8255 42.4384C18.4442 41.8531 17.647 42.054 17.9481 41.0993C18.2493 40.1447 21.1868 39.0453 22.1508 38.1037C24.2024 36.095 22.8072 36.0389 21.397 34.9589C20.4524 34.2376 19.7505 33.5486 19.196 32.4708C16.8736 27.9438 21.1197 26.6566 20.4373 22.9611C20.251 21.9481 18.9902 20.933 20.0235 20.0691C20.7601 19.4535 20.7384 20.054 21.072 20.2937C22.1487 21.0669 22.9632 21.8164 23.3727 23.1576C24.1244 25.622 22.2743 28.3542 24.8891 30.5399C26.7911 32.1296 27.48 30.473 29.4276 29.9114C32.4171 29.0497 34.5661 29.5615 37.1506 31.1101C37.9218 31.5723 37.6012 31.9611 38.771 31.4211C40.1315 30.7948 40.7965 29.324 40.8615 27.8898C40.9222 26.5507 40.5258 25.8812 41.1973 24.4795C41.6198 23.5961 43.4287 21.6134 44.501 21.8985C45.504 22.1663 44.397 24.0993 44.3125 24.7754C43.9204 27.9049 46.4355 29.6825 44.7978 33.0605C44.3212 34.0453 43.3767 34.838 42.469 35.4211C42.2025 35.5918 41.0782 36.0324 41.037 36.0993C40.803 36.4708 41.6241 38.3132 41.8927 38.7127C42.4105 39.4816 44.189 40.5507 44.1392 41.4449C44.0829 42.4665 41.6588 42.8013 40.8572 43.0194C41.1453 43.838 42.6878 45.3909 42.7354 46.1555C42.7787 46.8488 42.0357 46.7386 41.5613 46.8466C41.4075 46.8812 41.2385 46.7494 41.3316 47.0691C41.5656 47.879 42.2285 47.9762 42.7354 48.4795C45.257 50.9741 47.0551 53.8423 47.4299 57.4535C36.5354 57.244 25.6127 57.6091 14.716 57.4535C14.7116 55.2181 14.7225 52.9762 14.716 50.743H14.7181ZM31.5788 40.3974C33.3378 38.9913 27.7508 35.5918 27.6317 38.0216C27.5429 39.8466 30.253 41.4579 31.5788 40.3974ZM38.3096 37.1944C37.664 37.3369 35.8421 39.054 35.8335 39.7408C35.8226 40.9071 37.7723 40.5183 38.4222 39.8099C39.0115 39.1684 39.7979 36.8682 38.3096 37.1965V37.1944Z" fill="#3B82F6"/>
<path d="M31.5788 40.3973C30.253 41.4578 27.5429 39.8466 27.6317 38.0215C27.7509 35.5917 33.3379 38.9913 31.5788 40.3973Z" fill="#FAF4EC"/>
<path d="M38.3096 37.1944C39.7979 36.8682 39.0115 39.1663 38.4223 39.8077C37.7724 40.5162 35.8226 40.9049 35.8335 39.7386C35.84 39.054 37.664 37.3347 38.3096 37.1922V37.1944Z" fill="#FAF4EC"/>
<path d="M52.2825 61.0001H13.7693C11.9604 61.0001 10.4959 59.5379 10.4959 57.7366V12.2117C10.4959 10.4083 11.9625 8.94824 13.7693 8.94824H52.2825C54.0914 8.94824 55.5558 10.4104 55.5558 12.2117V57.7366C55.5558 59.54 54.0892 61.0001 52.2825 61.0001ZM15.9356 56.6804H50.1161C50.727 56.6804 51.2231 56.1858 51.2231 55.5768V14.3716C51.2231 13.7625 50.727 13.2679 50.1161 13.2679H15.9356C15.3247 13.2679 14.8286 13.7625 14.8286 14.3716V55.5768C14.8286 56.1858 15.3247 56.6804 15.9356 56.6804Z" fill="#272221"/>
<path d="M77.2734 32.8662C76.9658 33.1037 76.5607 33.3046 76.0624 33.4709C75.588 33.6372 75.0291 33.7193 74.3878 33.7193C73.5321 33.7193 72.8216 33.6135 72.2496 33.3996C71.7037 33.1858 71.3463 32.8186 71.1816 32.2981C70.5166 30.1901 69.9706 28.499 69.5439 27.2204C69.1171 25.9418 68.7835 24.8165 68.5474 23.8467H68.3697C68.2982 25.2441 68.2397 26.5227 68.1921 27.6826C68.1683 28.8186 68.1444 29.931 68.1206 31.0217C68.1206 32.0865 68.0968 33.188 68.0491 34.324C68.0253 35.4364 67.9776 36.6675 67.9061 38.0174C67.5963 38.1124 67.1934 38.2074 66.6951 38.3024C66.1969 38.3975 65.6986 38.445 65.1982 38.445C64.1778 38.445 63.3698 38.2787 62.7762 37.9482C62.1826 37.6178 61.8859 37.013 61.8859 36.1361C61.8859 35.5443 61.9097 34.7387 61.9574 33.7215C62.005 32.6804 62.0635 31.5206 62.135 30.242C62.2303 28.9396 62.3126 27.5789 62.3841 26.1577C62.4794 24.7366 62.5748 23.3284 62.6701 21.931C62.7654 20.5336 62.8477 19.2312 62.9192 18.0238C63.1098 17.7171 63.5258 17.3845 64.1649 17.0303C64.8061 16.6761 65.7095 16.4968 66.8728 16.4968C68.1314 16.4968 69.1171 16.6977 69.8298 17.1016C70.5664 17.4796 71.0885 18.1081 71.3961 18.9828C71.6821 19.7409 71.9897 20.6394 72.3233 21.6826C72.6547 22.6999 72.9884 23.7431 73.3198 24.8078C73.6513 25.8489 73.9502 26.7841 74.2102 27.6135H74.3878C74.9576 25.648 75.5273 23.7301 76.0971 21.8597C76.6906 19.9655 77.2127 18.404 77.6633 17.1729C78.0186 16.9828 78.4822 16.8294 79.052 16.7107C79.6217 16.5681 80.2391 16.4968 80.9042 16.4968C82.0675 16.4968 83.0185 16.6739 83.7529 17.0303C84.4895 17.3608 84.9162 17.8467 85.0354 18.486C85.1307 18.959 85.226 19.6826 85.3213 20.6523C85.4405 21.6221 85.5596 22.7366 85.6766 23.9914C85.7958 25.2463 85.9149 26.5595 86.0319 27.9331C86.1511 29.283 86.2572 30.5962 86.3525 31.8748C86.4717 33.1534 86.567 34.3132 86.6385 35.3543C86.71 36.3716 86.7576 37.1772 86.7815 37.769C86.3785 38.0066 85.9496 38.1707 85.499 38.2657C85.0722 38.3845 84.5133 38.4428 83.8244 38.4428C82.9449 38.4428 82.1867 38.2895 81.5454 37.9806C80.928 37.6739 80.5966 37.0692 80.5489 36.1685C80.4536 34.4407 80.3821 32.8294 80.3344 31.3392C80.2868 29.8467 80.2521 28.486 80.2283 27.2549C80.2044 26.0238 80.1698 24.9461 80.1221 24.0238H79.9445C79.7062 24.9482 79.3617 26.1081 78.9111 27.5033C78.4605 28.9007 77.9146 30.6869 77.2734 32.8662ZM102.83 37.4472C102.498 37.7323 101.974 37.9806 101.263 38.1923C100.575 38.4061 99.8142 38.512 98.9845 38.512C98.0118 38.512 97.1561 38.3694 96.4195 38.0865C95.7068 37.7798 95.2194 37.3651 94.9594 36.8446C94.6279 36.1815 94.2358 35.3046 93.7831 34.2161C93.3325 33.1275 92.8451 31.8964 92.323 30.5228C91.8009 29.1491 91.2788 27.7301 90.7567 26.2614C90.2346 24.7927 89.7472 23.337 89.2966 21.8942C88.8698 20.4256 88.5015 19.0778 88.1917 17.8467C88.5232 17.5163 88.9998 17.2204 89.6172 16.959C90.2584 16.6739 90.9343 16.5336 91.6471 16.5336C92.5266 16.5336 93.2372 16.7236 93.7852 17.1016C94.355 17.4796 94.7709 18.1556 95.0309 19.1253C95.6721 21.445 96.3134 23.6718 96.9546 25.8014C97.6197 27.9094 98.3086 30.1102 99.0213 32.4061H99.2358C99.6625 30.9374 100.091 29.3629 100.518 27.6826C100.969 26.0022 101.422 24.2852 101.872 22.5336C102.323 20.7582 102.752 19.0066 103.155 17.2765C103.581 17.0627 104.045 16.8856 104.543 16.7431C105.042 16.6005 105.587 16.5292 106.181 16.5292C107.061 16.5292 107.808 16.7301 108.425 17.134C109.043 17.512 109.353 18.1513 109.353 19.0519C109.353 19.5487 109.233 20.2938 108.997 21.2895C108.759 22.283 108.438 23.4212 108.035 24.6977C107.632 25.9526 107.18 27.2549 106.681 28.6048C106.207 29.931 105.72 31.1966 105.221 32.404C104.747 33.6113 104.294 34.6653 103.867 35.5638C103.441 36.4644 103.096 37.0908 102.834 37.445L102.83 37.4472ZM118.672 26.6156H120.381C121.354 26.6156 122.138 26.378 122.732 25.905C123.349 25.4083 123.659 24.7085 123.659 23.81C123.659 22.9115 123.373 22.2247 122.803 21.7495C122.257 21.2528 121.449 21.0044 120.381 21.0044C120.002 21.0044 119.682 21.0152 119.42 21.039C119.181 21.039 118.932 21.0627 118.672 21.1102V26.6156ZM120.774 31.4817H112.474V18.661C112.474 18.1642 112.617 17.7841 112.901 17.5249C113.187 17.2398 113.553 17.0152 114.006 16.851C114.814 16.5659 115.776 16.3651 116.891 16.2463C118.007 16.1037 119.006 16.0325 119.883 16.0325C123.137 16.0325 125.63 16.7301 127.364 18.1275C129.12 19.5249 130 21.4191 130 23.81C130 25.35 129.621 26.6977 128.86 27.8575C128.1 28.9936 127.032 29.8813 125.654 30.5206C124.277 31.1599 122.65 31.4796 120.774 31.4796V31.4817ZM112.474 28.7819H118.707V38.121C118.445 38.1923 118.042 38.2636 117.496 38.3348C116.95 38.4061 116.391 38.4407 115.821 38.4407C114.586 38.4407 113.72 38.2269 113.222 37.8014C112.723 37.3521 112.474 36.5811 112.474 35.4925V28.7798V28.7819Z" fill="#272221"/>
<path d="M64.9751 48.1685H61.6129V42.0432C61.6129 41.4817 61.7754 41.0454 62.1025 40.7344C62.4296 40.4082 62.8672 40.2462 63.4153 40.2462C63.7273 40.2462 64.0241 40.2678 64.3057 40.3132C64.6025 40.3585 64.8256 40.3953 64.9729 40.4233V48.1706L64.9751 48.1685ZM63.372 48.6782V45.9698H70.0725C70.1613 46.1166 70.2436 46.311 70.3173 46.5464C70.3909 46.7689 70.4278 47.013 70.4278 47.2786C70.4278 47.7516 70.3173 48.108 70.0941 48.3434C69.8862 48.5659 69.5959 48.676 69.2254 48.676H63.3698L63.372 48.6782ZM63.4175 42.9503V40.2419H70.8307C70.9195 40.3758 71.0018 40.5594 71.0755 40.797C71.1491 41.0346 71.186 41.2851 71.186 41.5508C71.186 42.0238 71.0755 42.3801 70.8524 42.6156C70.6444 42.838 70.3563 42.9482 69.9837 42.9482H63.4153L63.4175 42.9503ZM61.6151 46.8575H64.9989V53.6717C64.8646 53.7171 64.6501 53.7538 64.3533 53.7819C64.0565 53.8272 63.7533 53.8488 63.4413 53.8488C62.7741 53.8488 62.2975 53.73 62.0159 53.4946C61.7494 53.257 61.6151 52.851 61.6151 52.2743V46.8596V46.8575ZM76.7383 46.5464H78.1854C78.9285 46.5464 79.5221 46.3845 79.9662 46.0583C80.4254 45.7171 80.6572 45.2225 80.6572 44.5702C80.6572 43.9179 80.4428 43.4536 80.0117 43.1274C79.5806 42.7862 78.9198 42.6177 78.0295 42.6177C77.7782 42.6177 77.5464 42.6242 77.3384 42.6393C77.1304 42.6544 76.9311 42.6847 76.7383 42.7279V46.5464ZM78.4952 49.1663H73.374V41.419C73.374 41.1382 73.4563 40.9158 73.6188 40.7538C73.7813 40.5918 73.9979 40.4644 74.2643 40.3758C74.7539 40.1987 75.3259 40.0734 75.9779 39.9978C76.6452 39.9244 77.3362 39.8877 78.0489 39.8877C80.0528 39.8877 81.5584 40.3089 82.5679 41.1534C83.5775 41.9827 84.0822 43.1145 84.0822 44.5486C84.0822 45.4363 83.8374 46.2354 83.3478 46.946C82.8734 47.6415 82.2127 48.1879 81.3656 48.5875C80.5337 48.9719 79.5762 49.1642 78.493 49.1642L78.4952 49.1663ZM77.8735 48.3672L80.902 47.6566C81.2443 48.1296 81.5931 48.5961 81.9484 49.054C82.3188 49.5119 82.6676 49.9568 82.9947 50.3866C83.337 50.8164 83.6403 51.216 83.9067 51.5853C84.1732 51.9395 84.3898 52.2441 84.5523 52.4946C84.418 52.9395 84.1819 53.2873 83.8396 53.5378C83.4973 53.7754 83.1117 53.892 82.6828 53.892C82.1347 53.892 81.7101 53.7732 81.4133 53.5378C81.1317 53.2873 80.8652 52.9611 80.6117 52.5616L77.8735 48.3672ZM73.3761 47.9007H76.76V53.6717C76.6257 53.7171 76.4112 53.7538 76.1144 53.7819C75.8176 53.8272 75.5143 53.8488 75.2024 53.8488C74.5351 53.8488 74.0607 53.73 73.7769 53.4946C73.5105 53.257 73.3761 52.8445 73.3761 52.2527V47.9028V47.9007ZM92.4183 43.041H92.284C92.1367 43.514 91.9569 44.0389 91.7489 44.6177C91.5561 45.1944 91.3546 45.8013 91.1488 46.4385C90.9408 47.0605 90.7415 47.6804 90.5487 48.3024L90.148 50.3002C90.0591 50.581 89.9703 50.8769 89.8815 51.1879C89.8078 51.4989 89.7255 51.8013 89.6367 52.0972C89.5479 52.3931 89.4656 52.6739 89.3919 52.9417C89.3183 53.2074 89.2446 53.4601 89.1688 53.6955C89.0063 53.7408 88.82 53.784 88.612 53.8294C88.4041 53.8877 88.1593 53.9179 87.8776 53.9179C87.2537 53.9179 86.7793 53.8078 86.4522 53.5853C86.1251 53.3629 85.9626 53.0389 85.9626 52.6091C85.9626 52.432 85.9843 52.2462 86.0298 52.054C86.0882 51.8618 86.1554 51.6393 86.2291 51.3888C86.3634 50.9007 86.5475 50.2873 86.7858 49.5464C87.0371 48.8056 87.3057 48.0065 87.5874 47.149C87.8841 46.2765 88.1809 45.4169 88.4777 44.5745C88.7897 43.73 89.0713 42.9547 89.3248 42.2441C89.5912 41.5335 89.8079 40.9784 89.9703 40.5788C90.1783 40.4449 90.5054 40.3283 90.9495 40.2246C91.4088 40.1058 91.8615 40.0475 92.3078 40.0475C92.9469 40.0475 93.5166 40.1447 94.0214 40.3369C94.5261 40.514 94.8446 40.8035 94.9789 41.203C95.2605 41.9871 95.566 42.8963 95.8909 43.9331C96.2332 44.9547 96.5733 46.0259 96.9156 47.1512C97.2579 48.2765 97.5829 49.3715 97.8948 50.4363C98.2219 51.486 98.5035 52.4341 98.7418 53.2765C98.5794 53.4536 98.3411 53.6026 98.0291 53.7214C97.7172 53.8553 97.3467 53.9201 96.9156 53.9201C96.3069 53.9201 95.8758 53.8099 95.6245 53.5875C95.3732 53.365 95.1782 53.0324 95.0461 52.5896L94.3333 50.1037L93.9542 48.216C93.7766 47.5508 93.5903 46.9071 93.3975 46.2851C93.2047 45.6631 93.027 45.0799 92.8624 44.5313C92.6999 43.9698 92.5504 43.473 92.4161 43.0432L92.4183 43.041ZM88.6554 50.6976L89.9682 48.0778H95.1782L95.6245 50.6976H88.6554ZM109.697 50.3434C109.535 50.4773 109.311 50.5875 109.03 50.676C108.763 50.7646 108.451 50.8099 108.094 50.8099C107.635 50.8099 107.247 50.7516 106.937 50.6328C106.625 50.514 106.426 50.3153 106.337 50.0346C105.832 48.6285 105.401 47.4601 105.046 46.527C104.704 45.594 104.437 44.7883 104.244 44.108H104.134C104.088 45.041 104.052 45.892 104.023 46.6609C103.995 47.4298 103.971 48.1858 103.956 48.9244C103.941 49.6501 103.919 50.3888 103.889 51.1447C103.859 51.8985 103.815 52.7279 103.755 53.6307C103.592 53.676 103.369 53.7279 103.088 53.7862C102.821 53.8445 102.552 53.8747 102.286 53.8747C101.723 53.8747 101.276 53.7775 100.949 53.5853C100.637 53.3931 100.481 53.0605 100.481 52.5875C100.481 52.2613 100.497 51.7819 100.527 51.1447C100.572 50.4946 100.616 49.7538 100.661 48.9244C100.72 48.0799 100.772 47.1922 100.817 46.2613C100.876 45.3283 100.936 44.4125 100.995 43.5097C101.068 42.5918 101.136 41.7495 101.194 40.9784C101.313 40.8013 101.549 40.6242 101.907 40.4449C102.262 40.2527 102.754 40.1555 103.376 40.1555C104.043 40.1555 104.578 40.2657 104.979 40.4881C105.395 40.6955 105.691 41.0432 105.869 41.5313C106.092 42.0648 106.328 42.6847 106.582 43.3953C106.833 44.0907 107.08 44.8013 107.316 45.527C107.568 46.2376 107.799 46.8812 108.007 47.4579H108.118C108.534 46.1555 108.956 44.8834 109.387 43.6393C109.834 42.3974 110.21 41.3607 110.522 40.5313C110.73 40.4125 110.99 40.324 111.302 40.2657C111.629 40.1922 111.97 40.1555 112.327 40.1555C112.966 40.1555 113.477 40.2527 113.863 40.4449C114.264 40.622 114.502 40.8963 114.576 41.2657C114.634 41.5464 114.695 41.9914 114.753 42.5983C114.827 43.2052 114.901 43.9071 114.976 44.7063C115.05 45.4903 115.124 46.3197 115.2 47.1922C115.273 48.0497 115.34 48.8942 115.399 49.7236C115.473 50.5378 115.533 51.27 115.576 51.9201C115.622 52.5702 115.65 53.0886 115.665 53.473C115.442 53.6069 115.206 53.702 114.953 53.7624C114.714 53.8359 114.411 53.8726 114.041 53.8726C113.566 53.8726 113.157 53.784 112.817 53.6069C112.489 53.4298 112.312 53.0886 112.281 52.5853C112.208 51.432 112.147 50.3369 112.104 49.3002C112.058 48.2505 112.022 47.2959 111.993 46.4363C111.978 45.5637 111.957 44.8164 111.926 44.1944H111.816C111.623 44.8315 111.348 45.6372 110.993 46.6134C110.65 47.5745 110.221 48.8186 109.701 50.3413L109.697 50.3434ZM118.423 44.2829H121.718V53.5616C121.584 53.5918 121.376 53.6285 121.094 53.6717C120.828 53.7171 120.537 53.7387 120.225 53.7387C119.677 53.7387 119.238 53.5767 118.913 53.2505C118.588 52.9244 118.423 52.4881 118.423 51.9417V44.2851V44.2829ZM121.718 49.6544H118.423V42.041C118.423 41.4795 118.586 41.0432 118.913 40.7322C119.24 40.4061 119.677 40.2441 120.225 40.2441C120.537 40.2441 120.826 40.2657 121.094 40.311C121.376 40.3564 121.584 40.3931 121.718 40.4212V49.6544ZM120.225 48.1685V45.5054H126.95C127.039 45.6523 127.121 45.838 127.195 46.0605C127.268 46.2829 127.305 46.527 127.305 46.7927C127.305 47.2657 127.195 47.6134 126.971 47.8359C126.763 48.0583 126.482 48.1685 126.124 48.1685H120.225ZM120.225 53.7387V51.054H127.684C127.773 51.1879 127.855 51.3715 127.929 51.6091C128.003 51.8467 128.039 52.0972 128.039 52.3629C128.039 52.8359 127.929 53.1836 127.706 53.4061C127.498 53.6285 127.216 53.7387 126.859 53.7387H120.225ZM120.225 42.9071V40.2441H127.572C127.676 40.378 127.758 40.5551 127.816 40.7775C127.89 41 127.927 41.2441 127.927 41.5097C127.927 41.9827 127.823 42.3391 127.615 42.5745C127.407 42.797 127.117 42.9071 126.746 42.9071H120.223H120.225Z" fill="#272221"/>
</g>
<defs>
<clipPath id="clip0_29512_857">
<rect width="130" height="61" fill="white"/>
</clipPath>
</defs>
</svg>
